<svg width="19" height="19" viewBox="0 0 19 19" fill="none" xmlns="http://www.w3.org/2000/svg">
<path d="M0.5 2.59091C0.5 1.98483 0.702708 1.48483 1.10811 1.09091C1.51351 0.696963 2.04055 0.5 2.68919 0.5C3.32626 0.5 3.84169 0.693927 4.23552 1.08182C4.64092 1.48182 4.84363 2.00302 4.84363 2.64545C4.84363 3.22727 4.64672 3.7121 4.2529 4.09999C3.8475 4.49999 3.31467 4.69999 2.65444 4.69999H2.63707C1.99999 4.69999 1.48456 4.49999 1.09073 4.09999C0.696905 3.69999 0.5 3.19696 0.5 2.59091ZM0.725869 18.5V6.35454H4.58301V18.5H0.725869ZM6.72008 18.5H10.5772V11.7182C10.5772 11.2939 10.6236 10.9666 10.7162 10.7363C10.8784 10.3242 11.1245 9.97573 11.4546 9.69089C11.7847 9.40604 12.1988 9.26362 12.6969 9.26362C13.9942 9.26362 14.6429 10.1788 14.6429 12.0091V18.5H18.5V11.5363C18.5 9.7424 18.0946 8.3818 17.2838 7.45453C16.473 6.52726 15.4016 6.06363 14.0695 6.06363C12.5753 6.06363 11.4112 6.73635 10.5772 8.0818V8.11817H10.5598L10.5772 8.0818V6.35454H6.72008C6.74324 6.74241 6.75483 7.94846 6.75483 9.97271C6.75483 11.9969 6.74324 14.8394 6.72008 18.5Z" fill="white"/>
</svg>
