<svg width="19" height="19" viewBox="0 0 19 19" fill="none" xmlns="http://www.w3.org/2000/svg">
<path d="M6.50048 9.5C6.50048 7.84321 7.84322 6.49976 9.5 6.49976C11.1568 6.49976 12.5002 7.84321 12.5002 9.5C12.5002 11.1568 11.1568 12.5002 9.5 12.5002C7.84322 12.5002 6.50048 11.1568 6.50048 9.5ZM4.87859 9.5C4.87859 12.0524 6.94758 14.1214 9.5 14.1214C12.0524 14.1214 14.1214 12.0524 14.1214 9.5C14.1214 6.94758 12.0524 4.87859 9.5 4.87859C6.94758 4.87859 4.87859 6.94758 4.87859 9.5ZM13.2243 4.6954C13.2243 5.29152 13.7078 5.77569 14.3046 5.77569C14.9007 5.77569 15.3849 5.29152 15.3849 4.6954C15.3849 4.09927 14.9015 3.61583 14.3046 3.61583C13.7078 3.61583 13.2243 4.09927 13.2243 4.6954ZM5.86365 16.8258C4.98619 16.7858 4.50929 16.6397 4.19233 16.5161C3.77213 16.3525 3.47262 16.1577 3.15711 15.8429C2.84233 15.5281 2.64677 15.2286 2.48393 14.8084C2.36034 14.4914 2.21422 14.0145 2.17423 13.1371C2.13061 12.1884 2.12189 11.9034 2.12189 9.5C2.12189 7.09661 2.13134 6.81236 2.17423 5.86292C2.21422 4.98546 2.36107 4.50929 2.48393 4.1916C2.6475 3.77141 2.84233 3.47189 3.15711 3.15638C3.47189 2.8416 3.77141 2.64604 4.19233 2.4832C4.50929 2.35961 4.98619 2.21349 5.86365 2.17351C6.81236 2.12989 7.09733 2.12116 9.5 2.12116C11.9034 2.12116 12.1876 2.13061 13.1371 2.17351C14.0145 2.21349 14.4907 2.36034 14.8084 2.4832C15.2286 2.64604 15.5281 2.8416 15.8436 3.15638C16.1584 3.47116 16.3532 3.77141 16.5168 4.1916C16.6404 4.50856 16.7865 4.98546 16.8265 5.86292C16.8701 6.81236 16.8788 7.09661 16.8788 9.5C16.8788 11.9027 16.8701 12.1876 16.8265 13.1371C16.7865 14.0145 16.6397 14.4914 16.5168 14.8084C16.3532 15.2286 16.1584 15.5281 15.8436 15.8429C15.5288 16.1577 15.2286 16.3525 14.8084 16.5161C14.4914 16.6397 14.0145 16.7858 13.1371 16.8258C12.1884 16.8694 11.9034 16.8781 9.5 16.8781C7.09733 16.8781 6.81236 16.8694 5.86365 16.8258ZM5.7895 0.554523C4.83134 0.598142 4.17706 0.750081 3.60493 0.972536C3.01317 1.20226 2.51155 1.5105 2.01066 2.01066C1.5105 2.51082 1.20226 3.01244 0.972536 3.60493C0.750081 4.17706 0.598142 4.83134 0.554523 5.7895C0.510178 6.74911 0.5 7.0559 0.5 9.5C0.5 11.9441 0.510178 12.2509 0.554523 13.2105C0.598142 14.1687 0.750081 14.8229 0.972536 15.3951C1.20226 15.9868 1.50977 16.4892 2.01066 16.9893C2.51082 17.4895 3.01244 17.797 3.60493 18.0275C4.17779 18.2499 4.83134 18.4019 5.7895 18.4455C6.74984 18.4891 7.0559 18.5 9.5 18.5C11.9448 18.5 12.2509 18.4898 13.2105 18.4455C14.1687 18.4019 14.8229 18.2499 15.3951 18.0275C15.9868 17.797 16.4885 17.4895 16.9893 16.9893C17.4895 16.4892 17.797 15.9868 18.0275 15.3951C18.2499 14.8229 18.4026 14.1687 18.4455 13.2105C18.4891 12.2502 18.4993 11.9441 18.4993 9.5C18.4993 7.0559 18.4891 6.74911 18.4455 5.7895C18.4019 4.83134 18.2499 4.17706 18.0275 3.60493C17.797 3.01317 17.4895 2.51155 16.9893 2.01066C16.4892 1.5105 15.9868 1.20226 15.3958 0.972536C14.8229 0.750081 14.1687 0.597415 13.2112 0.554523C12.2516 0.510905 11.9448 0.5 9.50073 0.5C7.0559 0.5 6.74984 0.510178 5.7895 0.554523Z" fill="white"/>
</svg>
