<svg width="19" height="12" viewBox="0 0 19 12" fill="none" xmlns="http://www.w3.org/2000/svg">
<path d="M7.76331 5.52956C7.76331 5.52956 9.4664 5.40476 9.4664 3.43349C9.4664 1.46208 8.07305 0.5 6.30808 0.5H0.500244V11.5165H6.30808C6.30808 11.5165 9.85355 11.627 9.85355 8.26494C9.85355 8.26497 10.0081 5.52956 7.76331 5.52956ZM5.89004 2.45806H6.30808C6.30808 2.45806 7.09754 2.45806 7.09754 3.60428C7.09754 4.75036 6.63325 4.91652 6.10663 4.91652H3.05925V2.45806H5.89004ZM6.14396 9.55851H3.05925V6.61449H6.30808C6.30808 6.61449 7.48473 6.59926 7.48473 8.12742C7.48473 9.41599 6.60589 9.54878 6.14396 9.55851ZM14.5821 3.30292C10.2899 3.30292 10.2937 7.5358 10.2937 7.5358C10.2937 7.5358 9.99918 11.7469 14.5821 11.7469C14.5821 11.7469 18.4011 11.9623 18.4011 8.81748H16.437C16.437 8.81748 16.5025 10.0018 14.6476 10.0018C14.6476 10.0018 12.6832 10.1317 12.6832 8.08514H18.4666C18.4666 8.08511 19.0994 3.30292 14.5821 3.30292ZM12.6616 6.61449C12.6616 6.61449 12.9014 4.91649 14.6257 4.91649C16.3496 4.91649 16.328 6.61449 16.328 6.61449H12.6616ZM16.7855 2.50561H12.1808V1.14901H16.7855V2.50561Z" fill="white"/>
</svg>
