<svg width="84" height="84" viewBox="0 0 84 84" fill="none" xmlns="http://www.w3.org/2000/svg">
<path d="M58.6666 33.6667C58.6666 38.0869 56.9106 42.3262 53.785 45.4518C50.6594 48.5774 46.4202 50.3333 41.9999 50.3333C37.5796 50.3333 33.3404 48.5774 30.2148 45.4518C27.0892 42.3262 25.3333 38.0869 25.3333 33.6667C25.3333 29.2464 27.0892 25.0072 30.2148 21.8816C33.3404 18.7559 37.5796 17 41.9999 17C46.4202 17 50.6594 18.7559 53.785 21.8816C56.9106 25.0072 58.6666 29.2464 58.6666 33.6667Z" fill="black"/>
<path fill-rule="evenodd" clip-rule="evenodd" d="M40.2999 83.633C18.077 82.7413 0.333252 64.4413 0.333252 41.9997C0.333252 18.9872 18.9874 0.333008 41.9999 0.333008C65.0124 0.333008 83.6666 18.9872 83.6666 41.9997C83.6666 65.0122 65.0124 83.6664 41.9999 83.6664C41.8096 83.6676 41.6194 83.6676 41.4291 83.6664C41.052 83.6664 40.6749 83.6538 40.2999 83.633ZM15.2624 68.2913C14.9509 67.3967 14.8448 66.4434 14.9522 65.5022C15.0595 64.5609 15.3774 63.6559 15.8824 62.8544C16.3873 62.0529 17.0663 61.3753 17.8689 60.8721C18.6716 60.3689 19.5772 60.0529 20.5187 59.9476C36.7603 58.1497 47.3395 58.3122 63.502 59.9851C64.4447 60.0833 65.3526 60.3953 66.1565 60.8974C66.9604 61.3994 67.6392 62.0784 68.1411 62.8824C68.6429 63.6864 68.9547 64.5944 69.0526 65.5372C69.1506 66.4799 69.0321 67.4326 68.7062 68.3226C75.6331 61.314 79.5123 51.8537 79.4999 41.9997C79.4999 21.2893 62.7103 4.49967 41.9999 4.49967C21.2895 4.49967 4.49992 21.2893 4.49992 41.9997C4.49992 52.2413 8.60617 61.5247 15.2624 68.2913Z" fill="black"/>
</svg>
