<svg width="118" height="117" viewBox="0 0 118 117" fill="none" xmlns="http://www.w3.org/2000/svg">
<rect width="100" height="100" transform="translate(18 17)" fill="white"/>
<path d="M84.6666 58.6667C84.6666 63.0869 82.9106 67.3262 79.785 70.4518C76.6594 73.5774 72.4202 75.3333 67.9999 75.3333C63.5796 75.3333 59.3404 73.5774 56.2148 70.4518C53.0892 67.3262 51.3333 63.0869 51.3333 58.6667C51.3333 54.2464 53.0892 50.0072 56.2148 46.8816C59.3404 43.7559 63.5796 42 67.9999 42C72.4202 42 76.6594 43.7559 79.785 46.8816C82.9106 50.0072 84.6666 54.2464 84.6666 58.6667Z" fill="black"/>
<path fill-rule="evenodd" clip-rule="evenodd" d="M66.2999 108.633C44.077 107.741 26.3333 89.4413 26.3333 66.9997C26.3333 43.9872 44.9874 25.333 67.9999 25.333C91.0124 25.333 109.667 43.9872 109.667 66.9997C109.667 90.0122 91.0124 108.666 67.9999 108.666C67.8096 108.668 67.6194 108.668 67.4291 108.666C67.052 108.666 66.6749 108.654 66.2999 108.633ZM41.2624 93.2913C40.9509 92.3967 40.8448 91.4434 40.9522 90.5022C41.0595 89.5609 41.3774 88.6559 41.8824 87.8544C42.3873 87.0529 43.0663 86.3753 43.8689 85.8721C44.6716 85.3689 45.5772 85.0529 46.5187 84.9476C62.7603 83.1497 73.3395 83.3122 89.502 84.9851C90.4447 85.0833 91.3526 85.3953 92.1565 85.8974C92.9604 86.3994 93.6392 87.0784 94.1411 87.8824C94.6429 88.6864 94.9547 89.5944 95.0526 90.5372C95.1506 91.4799 95.0321 92.4326 94.7062 93.3226C101.633 86.314 105.512 76.8537 105.5 66.9997C105.5 46.2893 88.7103 29.4997 67.9999 29.4997C47.2895 29.4997 30.4999 46.2893 30.4999 66.9997C30.4999 77.2413 34.6062 86.5247 41.2624 93.2913Z" fill="black"/>
</svg>
