<svg width="86" height="86" viewBox="0 0 86 86" fill="none" xmlns="http://www.w3.org/2000/svg">
<rect width="86" height="86" fill="white"/>
<path d="M42.9999 14.333C46.8014 14.333 50.4471 15.8431 53.1351 18.5311C55.8231 21.2192 57.3333 24.8649 57.3333 28.6663C57.3333 32.4678 55.8231 36.1135 53.1351 38.8015C50.4471 41.4896 46.8014 42.9997 42.9999 42.9997C39.1985 42.9997 35.5527 41.4896 32.8647 38.8015C30.1767 36.1135 28.6666 32.4678 28.6666 28.6663C28.6666 24.8649 30.1767 21.2192 32.8647 18.5311C35.5527 15.8431 39.1985 14.333 42.9999 14.333ZM42.9999 21.4997C41.0992 21.4997 39.2763 22.2547 37.9323 23.5987C36.5883 24.9428 35.8333 26.7656 35.8333 28.6663C35.8333 30.5671 36.5883 32.3899 37.9323 33.7339C39.2763 35.0779 41.0992 35.833 42.9999 35.833C44.9006 35.833 46.7235 35.0779 48.0675 33.7339C49.4115 32.3899 50.1666 30.5671 50.1666 28.6663C50.1666 26.7656 49.4115 24.9428 48.0675 23.5987C46.7235 22.2547 44.9006 21.4997 42.9999 21.4997ZM42.9999 46.583C52.5674 46.583 71.6666 51.3488 71.6666 60.9163V71.6663H14.3333V60.9163C14.3333 51.3488 33.4324 46.583 42.9999 46.583ZM42.9999 53.3913C32.3574 53.3913 21.1416 58.623 21.1416 60.9163V64.858H64.8583V60.9163C64.8583 58.623 53.6424 53.3913 42.9999 53.3913Z" fill="black"/>
</svg>
