<svg width="86" height="86" viewBox="0 0 86 86" fill="none" xmlns="http://www.w3.org/2000/svg">
<rect x="1.5" y="1.5" width="83" height="83" rx="41.5" stroke="#A387AF" stroke-width="3"/>
<path d="M43 0C31.5957 0 20.6585 4.53034 12.5944 12.5944C4.53034 20.6585 0 31.5957 0 43C0 54.4043 4.53034 65.3415 12.5944 73.4056C20.6585 81.4697 31.5957 86 43 86C54.4043 86 65.3415 81.4697 73.4056 73.4056C81.4697 65.3415 86 54.4043 86 43C86 31.5957 81.4697 20.6585 73.4056 12.5944C65.3415 4.53034 54.4043 0 43 0ZM17.5977 25.4023H58.6484C60.7121 25.4323 62.6814 26.2715 64.1324 27.7393C65.5834 29.207 66.4 31.1859 66.4063 33.2498V54.2588C66.374 56.318 65.5419 58.2839 64.086 59.7405C62.6301 61.197 60.6646 62.0301 58.6054 62.0633H28.81C24.6032 62.0633 21.5 58.5158 21.5 54.2588V37.6358L16.1357 28.3263C15.0249 26.8213 15.9566 25.4023 17.5977 25.4023ZM29.8348 33.2498C28.5914 33.2498 27.3982 34.0022 27.3982 35.1991C27.3982 36.3959 28.5914 37.1484 29.8348 37.1484H58.1611C59.4009 37.1484 60.5977 36.3959 60.5977 35.1991C60.5977 34.0022 59.4009 33.2462 58.1611 33.2462L29.8348 33.2498ZM29.8348 41.0507C28.5914 41.0507 27.3982 41.8032 27.3982 43C27.3982 44.1968 28.5914 44.9493 29.8348 44.9493H58.1611C59.4009 44.9493 60.5977 44.1968 60.5977 43C60.5977 41.8032 59.4009 41.0507 58.1611 41.0507H29.8348ZM29.7882 48.8982C28.5484 48.8982 27.3516 49.6507 27.3516 50.8475C27.3516 52.0443 28.5484 52.7968 29.7882 52.7968H50.3136C51.557 52.7968 52.7502 52.0443 52.7502 50.8475C52.7502 49.6507 51.557 48.8946 50.3136 48.8946L29.7882 48.8982Z" fill="white"/>
</svg>
