<svg width="124" height="124" viewBox="0 0 124 124" fill="none" xmlns="http://www.w3.org/2000/svg">
<rect x="1.76929" y="1.72168" width="120" height="120" rx="60" stroke="#A387AF" stroke-width="3"/>
<path d="M61.7693 0.22168C45.4585 0.22168 29.8157 6.70112 18.2822 18.2346C6.74873 29.7681 0.269287 45.4109 0.269287 61.7217C0.269287 78.0325 6.74873 93.6753 18.2822 105.209C29.8157 116.742 45.4585 123.222 61.7693 123.222C78.0801 123.222 93.7229 116.742 105.256 105.209C116.79 93.6753 123.269 78.0325 123.269 61.7217C123.269 45.4109 116.79 29.7681 105.256 18.2346C93.7229 6.70112 78.0801 0.22168 61.7693 0.22168ZM25.4382 36.5528H84.1502C87.1017 36.5958 89.9183 37.7961 91.9936 39.8953C94.0688 41.9945 95.2367 44.8247 95.2458 47.7766V77.8244C95.1996 80.7696 94.0094 83.5812 91.9271 85.6644C89.8448 87.7477 87.0338 88.9391 84.0887 88.9867H41.4743C35.4575 88.9867 31.0193 83.9129 31.0193 77.8244V54.0496L23.3472 40.7348C21.7584 38.5823 23.0909 36.5528 25.4382 36.5528ZM42.94 47.7766C41.1617 47.7766 39.455 48.8528 39.455 50.5646C39.455 52.2763 41.1617 53.3526 42.94 53.3526H83.4532C85.2264 53.3526 86.9382 52.2763 86.9382 50.5646C86.9382 48.8528 85.2264 47.7714 83.4532 47.7714L42.94 47.7766ZM42.94 58.9337C41.1617 58.9337 39.455 60.0099 39.455 61.7217C39.455 63.4334 41.1617 64.5097 42.94 64.5097H83.4532C85.2264 64.5097 86.9382 63.4334 86.9382 61.7217C86.9382 60.0099 85.2264 58.9337 83.4532 58.9337H42.94ZM42.8734 70.1574C41.1002 70.1574 39.3884 71.2337 39.3884 72.9454C39.3884 74.6572 41.1002 75.7334 42.8734 75.7334H72.2294C74.0078 75.7334 75.7144 74.6572 75.7144 72.9454C75.7144 71.2337 74.0078 70.1523 72.2294 70.1523L42.8734 70.1574Z" fill="white"/>
</svg>
