<svg width="77" height="77" viewBox="0 0 77 77" fill="none" xmlns="http://www.w3.org/2000/svg">
<path d="M39.1541 0C51.1794 0 62.3139 5.33502 69.6973 14.3185C69.9076 14.5732 70.0646 14.8675 70.1589 15.1841C70.2532 15.5007 70.2828 15.833 70.2461 16.1612C70.2093 16.4895 70.107 16.807 69.945 17.0949C69.7831 17.3828 69.5649 17.6351 69.3035 17.837C68.7712 18.2542 68.0974 18.4476 67.425 18.3762C66.7525 18.3048 66.1344 17.9742 65.7016 17.4545C62.473 13.543 58.4167 10.3971 53.8251 8.24373C49.2336 6.09037 44.2214 4.98327 39.1502 5.0023C20.3571 5.0023 5.11985 19.8868 5.11985 38.2439C5.11985 56.601 20.3571 71.4855 39.1502 71.4855C44.2945 71.5051 49.3772 70.3661 54.0212 68.1529C58.6653 65.9396 62.7516 62.709 65.9769 58.7006C66.4024 58.1755 67.0155 57.8368 67.6865 57.7561C68.3574 57.6754 69.0333 57.8592 69.5711 58.2684C69.8348 58.4668 70.056 58.7162 70.2215 59.0017C70.387 59.2873 70.4934 59.6032 70.5344 59.9306C70.5754 60.2581 70.5502 60.5905 70.4603 60.9081C70.3703 61.2256 70.2175 61.5219 70.0108 61.7792C62.6389 70.996 51.3553 76.4878 39.1541 76.4878C17.5237 76.4878 0 59.366 0 38.2439C0 17.1218 17.5276 0 39.1541 0ZM65.3766 27.3826L75.7234 37.7353C76.7251 38.7334 76.7443 40.3358 75.7692 41.3149L65.6595 51.4227C65.1798 51.8923 64.5333 52.152 63.8621 52.1448C63.191 52.1376 62.5502 51.8642 62.0806 51.3845C61.8423 51.1521 61.6522 50.875 61.5211 50.5691C61.39 50.2631 61.3205 49.9343 61.3166 49.6015C61.3127 49.2687 61.3745 48.9383 61.4983 48.6294C61.6222 48.3204 61.8058 48.039 62.0385 47.801L67.9537 41.8847H28.532C28.1996 41.8888 27.8696 41.8273 27.561 41.7038C27.2523 41.5802 26.971 41.3971 26.7331 41.1649C26.4952 40.9326 26.3054 40.6558 26.1745 40.3501C26.0436 40.0445 25.9741 39.716 25.9702 39.3836C25.9702 37.9991 27.1172 36.8786 28.532 36.8786H67.797L61.8397 30.9202C61.3596 30.451 61.0855 29.8104 61.0776 29.1391C61.0697 28.4678 61.3287 27.8209 61.7977 27.3406C62.2779 26.8716 62.9247 26.6125 63.5958 26.6204C64.267 26.6283 64.9075 26.9025 65.3766 27.3826Z" fill="white"/>
</svg>
