<svg width="58" height="58" viewBox="0 0 58 58" fill="none" xmlns="http://www.w3.org/2000/svg">
<path d="M28.9999 0.333008C32.8014 0.333008 36.4471 1.84312 39.1351 4.53114C41.8231 7.21916 43.3333 10.8649 43.3333 14.6663C43.3333 18.4678 41.8231 22.1135 39.1351 24.8015C36.4471 27.4896 32.8014 28.9997 28.9999 28.9997C25.1985 28.9997 21.5527 27.4896 18.8647 24.8015C16.1767 22.1135 14.6666 18.4678 14.6666 14.6663C14.6666 10.8649 16.1767 7.21916 18.8647 4.53114C21.5527 1.84312 25.1985 0.333008 28.9999 0.333008ZM28.9999 7.49967C27.0992 7.49967 25.2763 8.25473 23.9323 9.59874C22.5883 10.9428 21.8333 12.7656 21.8333 14.6663C21.8333 16.5671 22.5883 18.3899 23.9323 19.7339C25.2763 21.0779 27.0992 21.833 28.9999 21.833C30.9006 21.833 32.7235 21.0779 34.0675 19.7339C35.4115 18.3899 36.1666 16.5671 36.1666 14.6663C36.1666 12.7656 35.4115 10.9428 34.0675 9.59874C32.7235 8.25473 30.9006 7.49967 28.9999 7.49967ZM28.9999 32.583C38.5674 32.583 57.6666 37.3488 57.6666 46.9163V57.6663H0.333252V46.9163C0.333252 37.3488 19.4324 32.583 28.9999 32.583ZM28.9999 39.3913C18.3574 39.3913 7.14159 44.623 7.14159 46.9163V50.858H50.8583V46.9163C50.8583 44.623 39.6424 39.3913 28.9999 39.3913Z" fill="black"/>
</svg>
