<svg width="142" height="100" viewBox="0 0 142 100" fill="none" xmlns="http://www.w3.org/2000/svg">
<path d="M124.268 5.85981L124.296 5.88567L124.324 5.91118L137.255 17.705C137.819 18.219 137.981 18.7522 137.981 19.1688C137.981 19.5853 137.819 20.1185 137.255 20.6325L137.25 20.6372L132.133 25.3148L129.751 23.1419L116.728 11.2644L115.123 9.80063L119.353 5.94267C120.844 4.63717 123.095 4.76226 124.268 5.85981ZM80.4977 76.8451L95.8626 62.8578V136H6.98071V22.534H96.3078L59.4801 56.185L58.3997 57.1723L57.8952 58.5462L51.3837 76.2787L47.222 87.6121L58.7687 84.0852L78.2114 78.1465L79.5008 77.7526L80.4977 76.8451Z" fill="white" stroke="white" stroke-width="12"/>
</svg>
