<svg width="31" height="31" viewBox="0 0 31 31" fill="none" xmlns="http://www.w3.org/2000/svg">
<path d="M19.3988 2.33932e-06H29.711C30.0528 2.33932e-06 30.3807 0.153917 30.6225 0.427886C30.8642 0.701855 31 1.07344 31 1.46089V13.148C31.0005 13.4373 30.9251 13.7202 30.7835 13.961C30.6419 14.2017 30.4404 14.3893 30.2046 14.5001C29.9688 14.6109 29.7092 14.6398 29.4589 14.5833C29.2085 14.5267 28.9786 14.3871 28.7984 14.1823L24.5549 9.37012L-5.46887 43.4L-7.29412 41.3314L22.7322 7.30443L18.4862 2.4952C18.3055 2.29088 18.1823 2.03034 18.1324 1.74661C18.0825 1.46288 18.108 1.16874 18.2058 0.901476C18.3035 0.634212 18.4691 0.405861 18.6815 0.245372C18.8939 0.0848834 19.1436 -0.000515297 19.3988 2.33932e-06Z" fill="white"/>
</svg>
