<svg width="54" height="54" viewBox="0 0 54 54" fill="none" xmlns="http://www.w3.org/2000/svg">
<path d="M47.25 10.1318C47.25 9.51279 47.0797 8.90575 46.7579 8.37703C46.4361 7.84832 45.975 7.41829 45.4252 7.13398C44.8754 6.84967 44.258 6.72203 43.6406 6.76503C43.0231 6.80802 42.4293 7.01999 41.9243 7.37775L18.2992 24.1279C17.8604 24.4382 17.502 24.8488 17.2539 25.3256C17.0058 25.8024 16.8751 26.3316 16.8728 26.869C16.8705 27.4065 16.9966 27.9368 17.2406 28.4157C17.4846 28.8946 17.8395 29.3083 18.2756 29.6224L41.9006 46.6222C42.4046 46.9858 42.9992 47.2031 43.6189 47.2503C44.2385 47.2974 44.8591 47.1726 45.4123 46.8895C45.9656 46.6065 46.4299 46.1762 46.7541 45.646C47.0784 45.1159 47.25 44.5066 47.25 43.8851V10.1318ZM6.75 8.4375C6.75 7.98995 6.92779 7.56073 7.24426 7.24426C7.56073 6.92779 7.98995 6.75 8.4375 6.75C8.88505 6.75 9.31427 6.92779 9.63074 7.24426C9.94721 7.56073 10.125 7.98995 10.125 8.4375V45.5625C10.125 46.0101 9.94721 46.4393 9.63074 46.7557C9.31427 47.0722 8.88505 47.25 8.4375 47.25C7.98995 47.25 7.56073 47.0722 7.24426 46.7557C6.92779 46.4393 6.75 46.0101 6.75 45.5625V8.4375Z" fill="white"/>
</svg>
