<svg width="55" height="60" viewBox="0 0 55 60" fill="none" xmlns="http://www.w3.org/2000/svg">
<path d="M50.2843 59.9805L31.3843 39.2642C29.8843 40.5795 28.1593 41.6208 26.2093 42.388C24.2593 43.1553 22.1843 43.539 19.9843 43.539C14.5343 43.539 9.92225 41.4695 6.14825 37.3306C2.37425 33.1918 0.486253 28.1365 0.484253 22.165C0.484253 16.1912 2.37225 11.136 6.14825 6.99933C9.92425 2.86265 14.5363 0.793208 19.9843 0.791016C25.4343 0.791016 30.0473 2.86045 33.8233 6.99933C37.5993 11.1382 39.4863 16.1934 39.4843 22.165C39.4843 24.5764 39.1343 26.8508 38.4343 28.9882C37.7343 31.1256 36.7843 33.0164 35.5843 34.6605L54.4843 55.3768L50.2843 59.9805ZM19.9843 36.9623C23.7343 36.9623 26.9223 35.5243 29.5483 32.6481C32.1743 29.7719 33.4863 26.2776 33.4843 22.165C33.4843 18.0546 32.1723 14.5613 29.5483 11.6852C26.9243 8.80899 23.7363 7.36981 19.9843 7.36762C16.2343 7.36762 13.0473 8.8068 10.4233 11.6852C7.79925 14.5635 6.48625 18.0568 6.48425 22.165C6.48425 26.2754 7.79725 29.7697 10.4233 32.6481C13.0493 35.5265 16.2363 36.9645 19.9843 36.9623Z" fill="black"/>
</svg>
