<svg width="24" height="34" viewBox="0 0 24 34" fill="none" xmlns="http://www.w3.org/2000/svg">
<path d="M12 32.734C14.0767 32.734 16.1068 31.8175 17.8335 30.1003C19.5602 28.3831 20.906 25.9424 21.7007 23.0868C22.4955 20.2312 22.7034 17.0889 22.2982 14.0575C21.8931 11.026 20.8931 8.24137 19.4246 6.05579C17.9562 3.87021 16.0852 2.38181 14.0484 1.77881C12.0116 1.17581 9.90045 1.48529 7.98182 2.66812C6.0632 3.85094 4.42332 5.85399 3.26957 8.42397C2.11581 10.9939 1.5 14.0154 1.5 17.1063C1.5 19.6901 1.92 22.1263 2.66667 24.2725L1.5 32.734L7.18517 30.9976C8.62717 32.1089 10.2652 32.734 12 32.734Z" stroke="white" stroke-width="2.5" stroke-linecap="round" stroke-linejoin="round"/>
</svg>
