<svg width="17" height="15" viewBox="0 0 17 15" fill="none" xmlns="http://www.w3.org/2000/svg">
<path d="M10.6381 1.13193e-06H16.2931C16.4806 1.13193e-06 16.6604 0.0744758 16.793 0.207042C16.9255 0.339607 17 0.519405 17 0.706881V6.36192C17.0002 6.50192 16.9589 6.63883 16.8813 6.75531C16.8036 6.87179 16.6931 6.96258 16.5638 7.01619C16.4345 7.0698 16.2922 7.0838 16.1549 7.05642C16.0176 7.02904 15.8915 6.96151 15.7926 6.8624L13.4656 4.53393L-2.99906 21L-4 19.9991L12.4661 3.5344L10.1376 1.20735C10.0385 1.10849 9.97096 0.982422 9.94358 0.845134C9.9162 0.707846 9.9302 0.56552 9.98381 0.436198C10.0374 0.306877 10.1282 0.196384 10.2447 0.118728C10.3612 0.0410726 10.4981 -0.000249337 10.6381 1.13193e-06Z" fill="white"/>
</svg>
