<svg width="39" height="57" viewBox="0 0 39 57" fill="none" xmlns="http://www.w3.org/2000/svg">
<path d="M0 5.80157C0 1.41037 3.3798 -1.18443 5.86861 1.29809L28.3535 23.7344C28.8539 24.2338 29.2636 24.9027 29.5473 25.6835C29.8311 26.4644 29.9804 27.3338 29.9825 28.2172C29.9846 29.1006 29.8394 29.9715 29.5594 30.7552C29.2794 31.5389 28.8729 32.2119 28.3749 32.7164L5.88788 55.4895C3.4055 58.0063 0 55.4115 0 51.0078V5.80157ZM38.5529 2.67346C38.5529 2.0531 38.3836 1.45815 38.0824 1.01949C37.7811 0.580835 37.3726 0.334399 36.9465 0.334399C36.5205 0.334399 36.1119 0.580835 35.8106 1.01949C35.5094 1.45815 35.3401 2.0531 35.3401 2.67346V54.1328C35.3401 54.7532 35.5094 55.3481 35.8106 55.7868C36.1119 56.2255 36.5205 56.4719 36.9465 56.4719C37.3726 56.4719 37.7811 56.2255 38.0824 55.7868C38.3836 55.3481 38.5529 54.7532 38.5529 54.1328V2.67346Z" fill="white"/>
</svg>
