<svg width="42" height="42" viewBox="0 0 42 42" fill="none" xmlns="http://www.w3.org/2000/svg">
<path d="M41.25 4.13175C41.25 3.51279 41.0797 2.90575 40.7579 2.37703C40.4361 1.84832 39.975 1.41829 39.4252 1.13398C38.8754 0.84967 38.258 0.722032 37.6406 0.765025C37.0231 0.808019 36.4293 1.01999 35.9243 1.37775L12.2992 18.1279C11.8604 18.4382 11.502 18.8488 11.2539 19.3256C11.0058 19.8024 10.8751 20.3316 10.8728 20.869C10.8705 21.4065 10.9966 21.9368 11.2406 22.4157C11.4846 22.8946 11.8395 23.3083 12.2756 23.6224L35.9006 40.6222C36.4046 40.9858 36.9992 41.2031 37.6189 41.2503C38.2385 41.2974 38.8591 41.1726 39.4123 40.8895C39.9656 40.6065 40.4299 40.1762 40.7541 39.646C41.0784 39.1159 41.25 38.5066 41.25 37.8851V4.13175ZM0.75 2.4375C0.75 1.98995 0.92779 1.56073 1.24426 1.24426C1.56073 0.92779 1.98995 0.75 2.4375 0.75C2.88505 0.75 3.31427 0.92779 3.63074 1.24426C3.94721 1.56073 4.125 1.98995 4.125 2.4375V39.5625C4.125 40.0101 3.94721 40.4393 3.63074 40.7557C3.31427 41.0722 2.88505 41.25 2.4375 41.25C1.98995 41.25 1.56073 41.0722 1.24426 40.7557C0.92779 40.4393 0.75 40.0101 0.75 39.5625V2.4375Z" fill="white"/>
</svg>
